# xmcd
#
# Track frame offsets: 
#        150
#        20057
#        37386
#        55241
#        73017
#        94754
#        112768
#        132702
#        150074
#        165418
#        178690
#        193602
#        212720
#        229198
#        248352
#        265063
#        279906
#        300193
#        316016
#
# Disc length: 4448 seconds
#
# Revision: 2
# Processed by: cddbd v1.5.2PL0 Copyright (c) Steve Scherf et al.
# Submitted via: ExactAudioCopy v1.0b1
#
DISCID=f5115e13
DTITLE=Various Artist - Ultimate R&B - Disc 2
DYEAR=2006
DGENRE=
TTITLE0=Sergio Mendes feat. Balck Eyed Peas - Mas Que Nada
TTITLE1=The Pussycat Dolls Feat. William - Beep
TTITLE2=Gwen Stefani and Eve - Rich Girl
TTITLE3=Nelly and Kelly Rowland - Dilemma
TTITLE4=The Game - Dreams
TTITLE5=2Pac Feat. Elton John - Getto Gospel
TTITLE6=N.O.R.E. - Nothing
TTITLE7=Foxy Brown Feat. Blackstreet - Get Me Home
TTITLE8=Mya - My Love Is Lide ... Wo
TTITLE9=City High - What Would You Do
TTITLE10=Will Smith - Switch
TTITLE11=Sisqo - Thong Song
TTITLE12=Ms. Dynamite - Dy-Na-My-Te
TTITLE13=BlackStreet - No Diggity
TTITLE14=K-Ci and Jo Jo - All My Life
TTITLE15=Flipsyde - Happy Birthday
TTITLE16=Tlc - Creep
TTITLE17=Beyonce - Naughty Girl
TTITLE18=Akon - Locked Up
EXTD=
EXTT0=
EXTT1=
EXTT2=
EXTT3=
EXTT4=
EXTT5=
EXTT6=
EXTT7=
EXTT8=
EXTT9=
EXTT10=
EXTT11=
EXTT12=
EXTT13=
EXTT14=
EXTT15=
EXTT16=
EXTT17=
EXTT18=
PLAYORDER=
